<svg xmlns="http://www.w3.org/2000/svg" width="800" height="1000" viewBox="0 0 800 1000">
  <defs>
    <linearGradient id="bg" x1="0" y1="0" x2="0" y2="1">
      <stop offset="0" stop-color="#191A1E"/>
      <stop offset="1" stop-color="#0C0D10"/>
    </linearGradient>
    <radialGradient id="vig" cx="0.5" cy="0.42" r="0.9">
      <stop offset="0.55" stop-color="#000" stop-opacity="0"/>
      <stop offset="1" stop-color="#000" stop-opacity="0.5"/>
    </radialGradient>
  </defs>
  <rect width="800" height="1000" fill="url(#bg)"/>
  <path d="M90 810 C 210 560, 300 780, 420 520 C 520 300, 620 420, 700 210" fill="none" stroke="#E8E8E8" stroke-opacity="0.85" stroke-width="3"/><circle cx="210" cy="560" r="5" fill="none" stroke="#E8E8E8" stroke-opacity="0.5" stroke-width="1.6"/><circle cx="300" cy="780" r="5" fill="none" stroke="#E8E8E8" stroke-opacity="0.5" stroke-width="1.6"/><circle cx="520" cy="300" r="5" fill="none" stroke="#E8E8E8" stroke-opacity="0.5" stroke-width="1.6"/><circle cx="620" cy="420" r="5" fill="none" stroke="#E8E8E8" stroke-opacity="0.5" stroke-width="1.6"/><line x1="90" y1="810" x2="210" y2="560" stroke="#E8E8E8" stroke-opacity="0.25" stroke-width="1.2" stroke-dasharray="5 6"/><line x1="420" y1="520" x2="300" y2="780" stroke="#E8E8E8" stroke-opacity="0.25" stroke-width="1.2" stroke-dasharray="5 6"/><line x1="420" y1="520" x2="520" y2="300" stroke="#E8E8E8" stroke-opacity="0.25" stroke-width="1.2" stroke-dasharray="5 6"/><line x1="700" y1="210" x2="620" y2="420" stroke="#E8E8E8" stroke-opacity="0.25" stroke-width="1.2" stroke-dasharray="5 6"/><rect x="83" y="803" width="14" height="14" fill="#0C0D10" stroke="#E8E8E8" stroke-width="2"/><rect x="413" y="513" width="14" height="14" fill="#0C0D10" stroke="#E8E8E8" stroke-width="2"/><rect x="693" y="203" width="14" height="14" fill="#0C0D10" stroke="#E8E8E8" stroke-width="2"/><circle cx="420" cy="520" r="10" fill="none" stroke="#FF5A1F" stroke-width="2.5"/>
  <rect width="800" height="1000" fill="url(#vig)"/>
  <rect x="1.5" y="1.5" width="797" height="997" fill="none" stroke="#FFFFFF" stroke-opacity="0.1" stroke-width="3" rx="2"/>
  <text x="36" y="960" font-family="'JetBrains Mono', monospace" font-size="24" letter-spacing="4" fill="#8F8F93">AMG_09 / SPLINE</text>
  <circle cx="748" cy="952" r="7" fill="#FF5A1F"/>
</svg>